<?xml version="1.0" encoding="UTF-8"?>
<svg xmlns="http://www.w3.org/2000/svg" id="Layer_1" data-name="Layer 1" viewBox="0 0 24 24">
  <path d="M22.442,10.497c-.856-.998-2.375-2.5-4.749-3.987-1.956-1.225-3.695-1.874-4.81-2.203-.718-.212-1.472-.076-2.071,.371-.596,.445-.938,1.126-.938,1.867v.667c-.343-.24-.696-.474-1.057-.701-1.955-1.225-3.695-1.874-4.809-2.203-.716-.211-1.473-.077-2.071,.371-.596,.445-.938,1.126-.938,1.867v10.911c0,.741,.342,1.421,.938,1.867,.599,.448,1.355,.583,2.071,.371,1.115-.329,2.854-.979,4.81-2.204,.361-.226,.714-.46,1.057-.7v.667c0,.741,.342,1.421,.938,1.867,.413,.309,.9,.469,1.398,.469,.224,0,.45-.032,.672-.098,1.115-.329,2.854-.979,4.81-2.203,2.374-1.487,3.893-2.989,4.749-3.987,.748-.871,.748-2.135,0-3.006Zm-1.518,1.704c-.766,.893-2.132,2.24-4.292,3.594-1.764,1.104-3.32,1.687-4.315,1.98-.143,.043-.254-.016-.306-.055-.051-.038-.135-.122-.135-.265v-2.7c0-.39-.227-.744-.58-.908-.354-.164-.771-.106-1.067,.146-.751,.639-1.583,1.244-2.471,1.801-1.763,1.104-3.319,1.687-4.315,1.98-.144,.043-.255-.016-.307-.055-.051-.038-.135-.123-.135-.265V6.544c0-.142,.084-.227,.135-.265,.039-.029,.111-.07,.206-.07,.032,0,.065,.004,.102,.015,.995,.294,2.551,.876,4.314,1.98,.888,.557,1.72,1.163,2.471,1.801,.296,.251,.713,.309,1.067,.146,.354-.164,.58-.518,.58-.908v-2.7c0-.143,.084-.227,.135-.265,.052-.039,.162-.098,.307-.055,.995,.294,2.551,.876,4.315,1.98,2.161,1.354,3.527,2.701,4.292,3.594h0c.101,.118,.101,.283,0,.401Z"/>
</svg>
