<svg id="Layer_1" viewBox="0 0 24 24" xmlns="http://www.w3.org/2000/svg" data-name="Layer 1"><path d="m19 12c-2.677 0-3.807 1.1-3.854 1.146-.094.094-.146.221-.146.354v5.778c-.295-.172-.634-.278-1-.278-1.103 0-2 .897-2 2s.897 2 2 2 2-.897 2-2v-7.258c.341-.234 1.279-.742 3-.742 1.737 0 2.675.561 3 .804v5.461c-.294-.165-.631-.265-1-.265-1.103 0-2 .897-2 2s.897 2 2 2 2-.912 2-2.033v-7.392c0-.126-.048-.248-.134-.34-.047-.051-1.18-1.235-3.866-1.235zm-5 10c-.552 0-1-.449-1-1s.448-1 1-1 1 .449 1 1-.448 1-1 1zm7 0c-.552 0-1-.449-1-1s.448-1 1-1c.561 0 1 .425 1 .967 0 .56-.458 1.033-1 1.033z"/><path d="m10.5 22c-.785 0-1.525-.018-2.214-.049-.358-.769-1.283-3.017-1.283-5.701 0-3.3 1.423-5.986 1.438-6.013.086-.16.078-.353-.019-.506-.098-.153-.291-.243-.45-.23-2.771.16-5.677.626-5.706.63-.181.029-.331.155-.392.327-.035.102-.874 2.517-.874 5.742 0 3.253.839 5.643.875 5.743.057.161.192.281.358.319.132.03 3.268.737 8.267.737.276 0 .5-.224.5-.5s-.224-.5-.5-.5zm-8.5-5.8c0-.598.032-1.169.082-1.7h4.038c-.073.555-.117 1.141-.117 1.75s.043 1.196.115 1.75h-4.027c-.055-.559-.091-1.162-.091-1.8zm.729-5.128c.705-.106 2.541-.367 4.461-.516-.277.658-.648 1.69-.901 2.944h-4.084c.169-1.138.398-2.009.523-2.428zm.004 10.273c-.12-.399-.344-1.238-.513-2.345h4.066c.242 1.206.594 2.209.879 2.888-2.265-.154-3.829-.426-4.433-.543z"/><path d="m10.393 11.488c.064.014 1.595.346 4.083.468h.024c.266 0 .486-.208.499-.476.014-.276-.199-.51-.475-.524-1.27-.062-2.283-.182-2.964-.282l2.652-2.31 2.879.959c.189.064.397.008.53-.14l4.203-4.671c.1.654.175 1.41.175 2.236 0 2.203-.421 3.77-.506 4.061-.076.265.076.542.342.62.261.074.542-.077.619-.341.264-.91.545-2.528.545-4.339 0-2.704-.724-4.731-.755-4.816-.056-.154-.184-.271-.342-.313-.095-.025-2.379-.621-5.903-.621-3.023 0-5.398.594-5.498.619-.16.041-.291.159-.347.314-.031.085-.755 2.112-.755 4.816 0 1.958.388 3.59.619 4.389.051.176.194.31.373.349zm.621-8.96c.69-.151 2.653-.528 4.986-.528 2.721 0 4.702.376 5.387.526.052.172.125.434.201.756l-4.49 4.99-2.84-.946c-.169-.057-.354-.019-.486.097l-2.998 2.612c-.186-.826-.373-1.968-.373-3.285 0-1.991.43-3.617.613-4.222z"/><circle cx="13.5" cy="5.001" r=".75"/></svg>