<?xml version="1.0" encoding="UTF-8"?>
<svg xmlns="http://www.w3.org/2000/svg" id="Layer_1" data-name="Layer 1" viewBox="0 0 24 24">
  <path d="M22.062,4.678c-.598-.448-1.352-.582-2.071-.371-1.116,.33-2.857,.981-4.808,2.204-.361,.226-.714,.46-1.058,.7v-.667c0-.741-.342-1.421-.938-1.866-.598-.448-1.353-.582-2.071-.371-1.116,.33-2.857,.981-4.808,2.204-2.371,1.484-3.892,2.987-4.75,3.987-.747,.87-.747,2.134,0,3.004h0c.858,1,2.379,2.503,4.749,3.987,1.951,1.223,3.692,1.874,4.811,2.204,.716,.212,1.472,.076,2.071-.372,.595-.445,.937-1.125,.937-1.865v-.667c.343,.24,.696,.474,1.057,.7,1.951,1.223,3.692,1.874,4.811,2.204,.222,.065,.447,.098,.671,.098,.498,0,.986-.16,1.4-.47,.595-.445,.937-1.125,.937-1.865V6.544c0-.741-.342-1.421-.938-1.866Zm-1.062,12.778c0,.142-.084,.227-.135,.264-.052,.038-.165,.099-.307,.056-.997-.295-2.555-.878-4.315-1.981-.888-.556-1.719-1.161-2.471-1.8-.185-.157-.415-.238-.647-.238-.143,0-.285,.03-.42,.093-.354,.163-.58,.518-.58,.907v2.7c0,.142-.084,.227-.135,.264-.052,.038-.165,.099-.307,.056-.997-.295-2.555-.878-4.315-1.981-2.157-1.351-3.525-2.699-4.293-3.594-.101-.118-.101-.283,0-.4,.768-.894,2.136-2.243,4.294-3.594,1.76-1.104,3.317-1.687,4.313-1.981,.146-.043,.254,.016,.308,.055,.05,.038,.135,.122,.135,.265v2.7c0,.39,.227,.744,.58,.907,.354,.164,.769,.108,1.067-.146,.752-.639,1.583-1.244,2.472-1.8,1.76-1.104,3.317-1.687,4.313-1.981,.145-.043,.254,.016,.308,.055,.05,.038,.135,.122,.135,.265v10.912Z"/>
</svg>
