<?xml version="1.0" encoding="UTF-8"?>
<svg xmlns="http://www.w3.org/2000/svg" id="Layer_1" data-name="Layer 1" viewBox="0 0 24 24">
  <path d="m15,2.338V.5c0-.276-.224-.5-.5-.5s-.5.224-.5.5v1.536c-.163-.023-.33-.036-.5-.036h-2.5V.5c0-.276-.224-.5-.5-.5s-.5.224-.5.5v1.5h-3V.5c0-.276-.224-.5-.5-.5s-.5.224-.5.5v1.5h-2.5c-.17,0-.337.012-.5.036V.5c0-.276-.224-.5-.5-.5s-.5.224-.5.5v1.838c-1.181.563-2,1.769-2,3.162v14c0,2.481,2.019,4.5,4.5,4.5h8c2.481,0,4.5-2.019,4.5-4.5V5.5c0-1.393-.819-2.599-2-3.162Zm1,17.162c0,1.93-1.57,3.5-3.5,3.5H4.5c-1.93,0-3.5-1.57-3.5-3.5V5.5c0-1.379,1.122-2.5,2.5-2.5h10c1.378,0,2.5,1.121,2.5,2.5v14Zm-3-13c0,.276-.224.5-.5.5H4.5c-.276,0-.5-.224-.5-.5s.224-.5.5-.5h8c.276,0,.5.224.5.5Zm0,4c0,.276-.224.5-.5.5H4.5c-.276,0-.5-.224-.5-.5s.224-.5.5-.5h8c.276,0,.5.224.5.5Zm-3,4c0,.276-.224.5-.5.5h-5c-.276,0-.5-.224-.5-.5s.224-.5.5-.5h5c.276,0,.5.224.5.5ZM21.5,0c-1.378,0-2.5,1.121-2.5,2.5v17.758c0,.922.374,1.823,1.025,2.475l1.121,1.121c.098.098.226.146.354.146s.256-.049.354-.146l1.121-1.121c.652-.651,1.025-1.553,1.025-2.475V2.5c0-1.379-1.122-2.5-2.5-2.5Zm1.5,20.258c0,.658-.267,1.303-.732,1.768l-.768.768-.768-.768c-.465-.465-.732-1.109-.732-1.768V2.5c0-.827.673-1.5,1.5-1.5s1.5.673,1.5,1.5v17.758Z"/>
</svg>
